<?xml version="1.0" encoding="utf-8"?>
<!-- Generator: Adobe Illustrator 16.0.0, SVG Export Plug-In . SVG Version: 6.00 Build 0)  -->
<!DOCTYPE svg PUBLIC "-//W3C//DTD SVG 1.1//EN" "http://www.w3.org/Graphics/SVG/1.1/DTD/svg11.dtd">
<svg version="1.1" id="Capa_1" xmlns="http://www.w3.org/2000/svg" xmlns:xlink="http://www.w3.org/1999/xlink" x="0px" y="0px"
	 width="79.536px" height="79.536px" viewBox="0 0 79.536 79.536" enable-background="new 0 0 79.536 79.536" xml:space="preserve">
<g id="bed">
	<rect x="18.338" y="23.696" fill="#666666" width="18.751" height="10.714"/>
	<rect x="42.447" y="23.696" fill="#666666" width="18.75" height="10.714"/>
	<path opacity="0.75" fill="#666666" enable-background="new    " d="M77.268,58.518H2.267V47.805
		c0-5.918,4.797-10.716,10.714-10.716h53.573c5.917,0,10.714,4.798,10.714,10.716V58.518z"/>
	<rect x="2.267" y="58.518" fill="#666666" width="5.357" height="5.357"/>
	<rect x="71.912" y="58.518" fill="#666666" width="5.356" height="5.357"/>
	<polygon fill="#666666" points="66.554,15.661 66.554,18.339 12.981,18.339 12.981,15.661 10.303,15.661 10.303,34.411 
		12.981,34.411 12.981,21.018 66.554,21.018 66.554,34.411 69.233,34.411 69.233,15.661 	"/>
	<polygon opacity="0.25" enable-background="new    " points="12.981,21.018 12.981,34.411 18.338,34.411 18.338,23.696 
		37.09,23.696 37.09,34.411 42.447,34.411 42.447,23.696 61.197,23.696 61.197,34.411 66.554,34.411 66.554,21.018 	"/>
</g>
</svg>
