<?xml version="1.0" encoding="utf-8"?>
<!-- Generator: Adobe Illustrator 16.0.0, SVG Export Plug-In . SVG Version: 6.00 Build 0)  -->
<!DOCTYPE svg PUBLIC "-//W3C//DTD SVG 1.1//EN" "http://www.w3.org/Graphics/SVG/1.1/DTD/svg11.dtd">
<svg version="1.1" id="Capa_1" xmlns="http://www.w3.org/2000/svg" xmlns:xlink="http://www.w3.org/1999/xlink" x="0px" y="0px"
	 width="79.536px" height="79.536px" viewBox="0 0 79.536 79.536" enable-background="new 0 0 79.536 79.536" xml:space="preserve">
<g id="matchstick">
	<path fill="#666666" d="M41.753,56.62c-6.338,23.992-24.447,21.51-33.762,10.746c-7.843-9.066-8.657-24.324,1.127-31.523
		c13.929-10.247,5.947-26.375,2.946-31.521c5.146,2.357,18.818,11.127,21.607,16.273c1.714,3.216,0.825,6.712-1.395,9.34
		c-7.612,9.007-1.021,12.128,5.255,14.152c0,0-13.993,12.695-14.796-7.249c-2.895,1.93-8.685,13.511-6.917,20.909
		c1.768,7.396,8.562,9.648,15.637,6.594C38.531,61.284,41.753,56.62,41.753,56.62z"/>
	<g>
		
			<rect x="53.862" y="22.344" transform="matrix(0.3885 0.9214 -0.9214 0.3885 75.2501 -24.9667)" opacity="0.5" enable-background="new    " width="5.149" height="43.743"/>
		
			<rect x="27.018" y="50.325" transform="matrix(0.3885 0.9215 -0.9215 0.3885 69.2097 6.6553)" fill="#666666" width="5.144" height="10.294"/>
	</g>
</g>
</svg>
