<?xml version="1.0" encoding="utf-8"?>
<!-- Generator: Adobe Illustrator 16.0.0, SVG Export Plug-In . SVG Version: 6.00 Build 0)  -->
<!DOCTYPE svg PUBLIC "-//W3C//DTD SVG 1.1//EN" "http://www.w3.org/Graphics/SVG/1.1/DTD/svg11.dtd">
<svg version="1.1" id="Capa_1" xmlns="http://www.w3.org/2000/svg" xmlns:xlink="http://www.w3.org/1999/xlink" x="0px" y="0px"
	 width="79.536px" height="79.536px" viewBox="0 0 79.536 79.536" enable-background="new 0 0 79.536 79.536" xml:space="preserve">
<g id="toilet-paper">
	<path fill="#666666" d="M1.85,25.184c0,0.798,0,1.812,0,2.917h2.917v2.917H1.85c0,0.923,0,1.894,0,2.917h2.917v2.917H1.85
		c0,0.953,0,1.921,0,2.918h2.917v2.917H1.85c0,0.968,0,1.937,0,2.916h2.917v2.917H1.85c0,0.979,0,1.954,0,2.917h2.917v2.916H1.85
		c0,0.997,0,1.966,0,2.917h2.917v2.917H1.85c0,1.03,0,2.011,0,2.916h2.917v2.917H1.85c0,1.23,0,2.244,0,2.917
		c12.342,0,21.758-2.895,26.25-4.609V20.579C23.608,22.291,14.192,25.184,1.85,25.184z"/>
	<path fill="#666666" d="M31.017,23.313v39.789c0,6.443,10.449,11.667,23.334,11.667s23.334-5.224,23.334-11.667V23.313
		c-4.284,4.657-12.909,7.705-23.334,7.705S35.302,27.97,31.017,23.313z"/>
	<path fill="#666666" d="M54.351,4.768c-12.886,0-23.334,5.224-23.334,11.667s10.449,11.667,23.334,11.667
		s23.334-5.224,23.334-11.667S67.237,4.768,54.351,4.768z M54.351,20.809c-4.83,0-8.75-1.959-8.75-4.375
		c0-2.415,3.92-4.375,8.75-4.375c4.831,0,8.75,1.96,8.75,4.375C63.101,18.85,59.182,20.809,54.351,20.809z"/>
</g>
</svg>
