<?xml version="1.0" encoding="utf-8"?>
<!-- Generator: Adobe Illustrator 16.0.0, SVG Export Plug-In . SVG Version: 6.00 Build 0)  -->
<!DOCTYPE svg PUBLIC "-//W3C//DTD SVG 1.1//EN" "http://www.w3.org/Graphics/SVG/1.1/DTD/svg11.dtd">
<svg version="1.1" id="Capa_1" xmlns="http://www.w3.org/2000/svg" xmlns:xlink="http://www.w3.org/1999/xlink" x="0px" y="0px"
	 width="551.062px" height="551.062px" viewBox="0 0 551.062 551.062" enable-background="new 0 0 551.062 551.062"
	 xml:space="preserve">
<g>
	<path fill="#FFFFFF" d="M545.292,259.638l-6.226-18.198c-3.441-10.072-14.398-18.204-24.453-18.204h-22.589
		c-16.952-47.583-37.69-105.018-43.732-118.477c-9.378-20.918-39.34-30.365-55.809-34.961c0,0-27.521-10.466-119.316-10.466
		c-91.79,0-119.316,10.461-119.316,10.461c-19.29,6.451-46.108,15.571-56.769,35.887c-4.999,9.569-26.061,68.633-43.204,117.55
		H31.744c-10.049,0-21.001,8.148-24.448,18.209l-6.254,18.198c-3.441,10.075,1.915,18.211,11.973,18.211h21.845
		c-2.82,8.184-4.536,13.148-4.536,13.148c-1.747,2.961-3.004,16.588-3.004,20.247v103.19v7.194v55.485
		c0,10.641,8.64,19.287,19.281,19.287H117.3c10.652,0,19.281-8.646,19.281-19.287v-35.35h273.165v35.35
		c0,10.641,8.641,19.287,19.281,19.287h70.694c10.646,0,19.286-8.646,19.286-19.287V421.63v-7.194V311.233
		c0-3.658-1.257-17.286-3.015-20.235c0,0-1.749-4.971-4.63-13.153h21.95C543.377,277.845,548.733,269.702,545.292,259.638z
		 M136.178,361.252h-29.222c-26.178,0-52.318-3.53-52.318-20.125v-20.124c0-19.425,11.287-20.124,23.437-20.124
		c11.884,0,35.41,10.049,50.892,16.975c16.88,7.545,35.775,13.855,35.775,26.435C164.749,355.9,158.215,361.252,136.178,361.252z
		 M95.456,230.571c14.371-59.718,30.011-93.427,33.463-102.845c2.758-6.831,5.439-27.938,144.259-27.938
		c138.821,0,142.082,24.08,142.421,24.38c4.279,12.787,21.254,51.335,34.83,106.369c0,0-58.629,19.973-177.286,19.973
		C154.482,250.509,95.456,230.571,95.456,230.571z M381.574,344.257c0-12.597,18.9-18.876,35.77-26.421
		c15.488-6.908,39.008-16.988,50.887-16.988c12.15,0,23.438,0.708,23.438,20.133v20.129h0.033c0,16.635-26.146,20.125-52.318,20.125
		h-29.256C388.125,361.252,381.574,355.9,381.574,344.257z"/>
</g>
</svg>
