<?xml version="1.0" encoding="utf-8"?>
<!-- Generator: Adobe Illustrator 16.0.0, SVG Export Plug-In . SVG Version: 6.00 Build 0)  -->
<!DOCTYPE svg PUBLIC "-//W3C//DTD SVG 1.1//EN" "http://www.w3.org/Graphics/SVG/1.1/DTD/svg11.dtd">
<svg version="1.1" id="Layer_1" xmlns="http://www.w3.org/2000/svg" xmlns:xlink="http://www.w3.org/1999/xlink" x="0px" y="0px"
	 width="512px" height="512px" viewBox="0 0 512 512" enable-background="new 0 0 512 512" xml:space="preserve">
<g id="toilet-seat">
	<polygon opacity="0.5" fill="#010101" enable-background="new    " points="487.112,247.612 184.889,247.612 202.667,212.056 
		469.333,212.056 	"/>
	<path fill="#929292" d="M487.112,265.388H24.888v35.557h17.778V407.61H96v71.112H60.444V496.5h320v-17.777h-35.556v-72.101
		c93.334-7.604,116.753-73.334,122.481-105.678h19.74v-35.557H487.112z"/>
	<g>
		<path fill="#929292" d="M113.777,16.5H78.223c-29.463,0-53.335,23.888-53.335,53.333v177.777h142.223V69.833
			C167.111,40.388,143.24,16.5,113.777,16.5z M131.555,123.167H94.368c-3.68,10.331-13.437,17.778-25.035,17.778
			c-14.723,0-26.667-11.945-26.667-26.667s11.945-26.666,26.667-26.666c11.598,0,21.354,7.447,25.035,17.778h37.188L131.555,123.167
			L131.555,123.167z"/>
	</g>
</g>
</svg>
