<?xml version="1.0" encoding="utf-8"?>
<!-- Generator: Adobe Illustrator 16.0.0, SVG Export Plug-In . SVG Version: 6.00 Build 0)  -->
<!DOCTYPE svg PUBLIC "-//W3C//DTD SVG 1.1//EN" "http://www.w3.org/Graphics/SVG/1.1/DTD/svg11.dtd">
<svg version="1.1" id="Layer_1" xmlns="http://www.w3.org/2000/svg" xmlns:xlink="http://www.w3.org/1999/xlink" x="0px" y="0px"
	 width="512px" height="512px" viewBox="0 0 512 512" enable-background="new 0 0 512 512" xml:space="preserve">
<g id="bed">
	<rect x="109.714" y="146.286" fill="#929292" width="128" height="73.143"/>
	<rect x="274.285" y="146.286" fill="#929292" width="128" height="73.143"/>
	<path opacity="0.75" fill="#929292" enable-background="new    " d="M512,384H0v-73.143c0-40.393,32.75-73.143,73.143-73.143
		h365.714c40.393,0,73.143,32.75,73.143,73.143V384z"/>
	<rect y="384" fill="#929292" width="36.571" height="36.571"/>
	<rect x="475.429" y="384" fill="#929292" width="36.571" height="36.571"/>
	<polygon fill="#929292" points="438.857,91.429 438.857,109.714 73.143,109.714 73.143,91.429 54.857,91.429 54.857,219.429 
		73.143,219.429 73.143,128 438.857,128 438.857,219.429 457.143,219.429 457.143,91.429 	"/>
	<polygon opacity="0.25" fill="#010101" enable-background="new    " points="73.143,128 73.143,219.429 109.714,219.429 
		109.714,146.286 237.714,146.286 237.714,219.429 274.285,219.429 274.285,146.286 402.285,146.286 402.285,219.429 
		438.857,219.429 438.857,128 	"/>
</g>
</svg>
