<?xml version="1.0" encoding="utf-8"?>
<!-- Generator: Adobe Illustrator 16.0.0, SVG Export Plug-In . SVG Version: 6.00 Build 0)  -->
<!DOCTYPE svg PUBLIC "-//W3C//DTD SVG 1.1//EN" "http://www.w3.org/Graphics/SVG/1.1/DTD/svg11.dtd">
<svg version="1.1" id="Layer_1" xmlns="http://www.w3.org/2000/svg" xmlns:xlink="http://www.w3.org/1999/xlink" x="0px" y="0px"
	 width="512px" height="512px" viewBox="0 0 512 512" enable-background="new 0 0 512 512" xml:space="preserve">
<path fill="#929292" d="M464,0H48C21.6,0,0,21.6,0,48v288c0,26.4,21.6,48,48,48h80v128l153.6-128H464c26.4,0,48-21.6,48-48V48
	C512,21.6,490.4,0,464,0z M256,288c0,0-128-61.125-128-132c0-0.985,0.028-1.938,0.077-2.868c0.006-0.106,0.008-0.213,0.014-0.318
	c0.04-0.672,0.095-1.326,0.16-1.969C131.042,120.123,158.508,96,192,96c35.346,0,64,38.863,64,72c0-33.137,28.654-72,64-72
	c33.491,0,60.957,24.122,63.749,54.843c0.063,0.645,0.12,1.298,0.159,1.971c0.007,0.105,0.009,0.212,0.015,0.317
	c0.048,0.931,0.077,1.884,0.077,2.869C384,226.875,256,288,256,288z"/>
</svg>
