<?xml version="1.0" encoding="utf-8"?>
<!-- Generator: Adobe Illustrator 16.0.0, SVG Export Plug-In . SVG Version: 6.00 Build 0)  -->
<!DOCTYPE svg PUBLIC "-//W3C//DTD SVG 1.1//EN" "http://www.w3.org/Graphics/SVG/1.1/DTD/svg11.dtd">
<svg version="1.1" id="Layer_1" xmlns="http://www.w3.org/2000/svg" xmlns:xlink="http://www.w3.org/1999/xlink" x="0px" y="0px"
	 width="512px" height="512px" viewBox="0 0 512 512" enable-background="new 0 0 512 512" xml:space="preserve">
<path fill="#929292" d="M448,32C432.279,0,320,0,256,0S79.72,0,64,32S32,256,32,256v192h64v32c0,17.673,14.327,32,32,32
	s32-14.327,32-32v-32h192v32c0,17.673,14.327,32,32,32c17.674,0,32-14.327,32-32v-32h64V256C480,256,463.721,64,448,32z M160,32h192
	v32H160V32z M128,352c-17.673,0-32-14.327-32-32s14.327-32,32-32s32,14.327,32,32S145.673,352,128,352z M102.499,224.001
	c0.8-7.513,1.656-15.314,2.559-23.231c6.083-53.329,10.847-81.788,13.844-96.464c8.586-2.002,23.196-4.479,46.867-6.145
	C196.495,96,229.49,96,256,96s59.505,0,90.231,2.161c23.671,1.665,38.278,4.142,46.864,6.145
	c2.996,14.676,7.764,43.136,13.847,96.465c0.9,7.917,1.759,15.718,2.559,23.23H102.499L102.499,224.001z M384,352
	c-17.673,0-32-14.327-32-32s14.327-32,32-32s32,14.327,32,32S401.673,352,384,352z"/>
</svg>
