<?xml version="1.0" encoding="utf-8"?>
<!-- Generator: Adobe Illustrator 16.0.0, SVG Export Plug-In . SVG Version: 6.00 Build 0)  -->
<!DOCTYPE svg PUBLIC "-//W3C//DTD SVG 1.1//EN" "http://www.w3.org/Graphics/SVG/1.1/DTD/svg11.dtd">
<svg version="1.1" id="Layer_1" xmlns="http://www.w3.org/2000/svg" xmlns:xlink="http://www.w3.org/1999/xlink" x="0px" y="0px"
	 width="512px" height="512px" viewBox="0 0 512 512" enable-background="new 0 0 512 512" xml:space="preserve">
<path fill="#929292" d="M422.198,160L384.444,46.738C381.554,38.061,373.146,32,364,32H148c-9.145,0-17.552,6.06-20.444,14.735
	L89.801,160H0v224h64v80c0,8.8,7.199,16,16,16h64c8.8,0,16-7.2,16-16v-80h192v80c0,8.8,7.198,16,16,16h64c8.8,0,16-7.2,16-16v-80h64
	V160H422.198z M112,320c-26.51,0-48-21.49-48-48s21.49-48,48-48s48,21.49,48,48S138.51,320,112,320z M131.532,160l32-96h184.936
	l32,96H131.532z M400,320c-26.51,0-48-21.49-48-48s21.49-48,48-48s48,21.49,48,48S426.51,320,400,320z"/>
</svg>
