<?xml version="1.0" encoding="utf-8"?>
<!-- Generator: Adobe Illustrator 16.0.0, SVG Export Plug-In . SVG Version: 6.00 Build 0)  -->
<!DOCTYPE svg PUBLIC "-//W3C//DTD SVG 1.1//EN" "http://www.w3.org/Graphics/SVG/1.1/DTD/svg11.dtd">
<svg version="1.1" id="Layer_1" xmlns="http://www.w3.org/2000/svg" xmlns:xlink="http://www.w3.org/1999/xlink" x="0px" y="0px"
	 width="512px" height="512px" viewBox="0 0 512 512" enable-background="new 0 0 512 512" xml:space="preserve">
<path fill="#929292" d="M446.133,257.245C447.356,251.691,448,245.922,448,240c0-44.183-35.817-80-80-80
	c-7.112,0-14.008,0.934-20.568,2.676C335.035,124,298.789,96,256,96c-43.674,0-80.527,29.168-92.164,69.085
	C152.465,161.775,140.44,160,128,160C57.307,160,0,217.308,0,288c0,70.693,57.307,128,128,128h304c44.182,0,80-35.816,80-80
	C512,296.641,483.573,263.92,446.133,257.245z M432,384.077V384H128c-53.021,0-96-42.98-96-96c0-53.019,42.979-96,96-96
	c31.404,0,59.288,15.083,76.803,38.398l25.601-19.201c-9.993-13.305-22.521-24.596-36.864-33.163
	C199.911,149.406,225.452,128,256,128c35.346,0,64,28.654,64,64c0,8.942-1.839,17.454-5.148,25.184l29.429,12.593
	c4.627-10.799,7.33-22.615,7.68-35.021c5.015-1.78,10.411-2.756,16.04-2.756c26.51,0,48,21.49,48,48
	c0,6.541-1.316,12.773-3.688,18.455c-8.928,2.261-17.259,6.009-24.701,10.982l17.697,26.564c7.638-5.104,16.813-8.083,26.688-8.083
	c26.554,0,48.075,21.521,48.075,48.076C480.074,362.553,458.553,384.077,432,384.077z"/>
</svg>
