<?xml version="1.0" encoding="utf-8"?>
<!-- Generator: Adobe Illustrator 16.0.0, SVG Export Plug-In . SVG Version: 6.00 Build 0)  -->
<!DOCTYPE svg PUBLIC "-//W3C//DTD SVG 1.1//EN" "http://www.w3.org/Graphics/SVG/1.1/DTD/svg11.dtd">
<svg version="1.1" id="Layer_1" xmlns="http://www.w3.org/2000/svg" xmlns:xlink="http://www.w3.org/1999/xlink" x="0px" y="0px"
	 width="512px" height="512px" viewBox="0 0 512 512" enable-background="new 0 0 512 512" xml:space="preserve">
<path fill="#929292" d="M440,128l72-64c-6.038-32.334-31.666-57.962-64-64l-64,72v17.109l-90.734,90.735
	c-47.035-38.417-79.562-33.168-100.676-15.795c-20.49,16.855-28.145,50.262-39.481,60.243
	c-22.896,20.152-79.232-0.076-127.196,52.117C-29.588,336.807,14.208,401.2,62.504,449.496
	c48.295,48.294,112.689,92.092,173.087,36.592c52.194-47.964,31.954-104.312,52.104-127.207c9.98-11.337,43.398-18.979,60.256-39.47
	c17.371-21.114,22.62-53.642-15.796-100.676L422.891,128H440z M146.565,429.435l-64-63.999l26.87-26.869l64,64L146.565,429.435z
	 M240,320c-26.51,0-48-21.49-48-48s21.49-48,48-48s48,21.49,48,48S266.51,320,240,320z"/>
</svg>
