<?xml version="1.0" encoding="utf-8"?>
<!-- Generator: Adobe Illustrator 16.0.0, SVG Export Plug-In . SVG Version: 6.00 Build 0)  -->
<!DOCTYPE svg PUBLIC "-//W3C//DTD SVG 1.1//EN" "http://www.w3.org/Graphics/SVG/1.1/DTD/svg11.dtd">
<svg version="1.1" id="Layer_1" xmlns="http://www.w3.org/2000/svg" xmlns:xlink="http://www.w3.org/1999/xlink" x="0px" y="0px"
	 width="512px" height="512px" viewBox="0 0 512 512" enable-background="new 0 0 512 512" xml:space="preserve">
<path fill="#929292" d="M256.661,512l-26.448-36.033c-32.472-44.238-70.793-76.045-107.854-106.805
	c-31.139-25.844-60.55-50.256-82.931-79.527C12.897,254.938,0,217.58,0,175.426C0,96.341,67.112,32,149.604,32
	c28.833,0,57.551,10.134,83.049,29.306c8.305,6.245,16.154,13.389,23.352,21.197c7.195-7.808,15.041-14.951,23.347-21.196
	C304.846,42.135,333.562,32,362.395,32C444.888,32,512,96.341,512,175.426c0,40.521-12.92,76.971-39.499,111.43
	c-22.229,28.819-51.254,53.196-81.983,79.006c-37.83,31.771-76.947,64.623-108.27,109.487L256.661,512z M149.604,96
	C102.401,96,64,131.631,64,175.426c0,62.126,41.624,96.674,99.233,144.49c29.444,24.438,61.92,51.393,92.271,85.654
	c30.285-35.332,63.626-63.332,93.854-88.719c28.007-23.521,54.461-45.738,72.467-69.083C439.927,224.298,448,201.987,448,175.426
	C448,131.631,409.598,96,362.395,96c-23.976,0-58.52,17.647-77.707,56.393l-28.665,57.88l-28.684-57.871
	C208.132,113.651,173.579,96,149.604,96z"/>
</svg>
