<?xml version="1.0" encoding="utf-8"?>
<!-- Generator: Adobe Illustrator 16.0.0, SVG Export Plug-In . SVG Version: 6.00 Build 0)  -->
<!DOCTYPE svg PUBLIC "-//W3C//DTD SVG 1.1//EN" "http://www.w3.org/Graphics/SVG/1.1/DTD/svg11.dtd">
<svg version="1.1" id="Layer_1" xmlns="http://www.w3.org/2000/svg" xmlns:xlink="http://www.w3.org/1999/xlink" x="0px" y="0px"
	 width="512px" height="512px" viewBox="0 0 512 512" enable-background="new 0 0 512 512" xml:space="preserve">
<path fill="#929292" d="M416,224h-32v-96C384,57.308,326.692,0,256,0c-70.692,0-128,57.308-128,128v96H96c-17.6,0-32,14.4-32,32v224
	c0,17.6,14.4,32,32,32h320c17.6,0,32-14.4,32-32V256C448,238.4,433.6,224,416,224z M192,128c0-35.29,28.71-64,64-64s64,28.71,64,64
	v96H192V128z M416,320l-160,16l160,16l-160,16l160,16l-160,16l160,16l-160,16l160,16l-160,16l159.947,15.995
	c-0.002,0.001-0.003,0.003-0.005,0.005H96.058c-0.002-0.002-0.003-0.004-0.005-0.005L256,464L96,448l160-16L96,416l160-16L96,384
	l160-16L96,352l160-16L96,320l160-16L96,288l160-16L96.052,256.005c0.002-0.002,0.003-0.004,0.005-0.005h319.885
	c0.002,0.001,0.003,0.004,0.005,0.005L256,272l160,16l-160,16L416,320z"/>
</svg>
