<?xml version="1.0" encoding="utf-8"?>
<!-- Generator: Adobe Illustrator 16.0.0, SVG Export Plug-In . SVG Version: 6.00 Build 0)  -->
<!DOCTYPE svg PUBLIC "-//W3C//DTD SVG 1.1//EN" "http://www.w3.org/Graphics/SVG/1.1/DTD/svg11.dtd">
<svg version="1.1" id="Layer_1" xmlns="http://www.w3.org/2000/svg" xmlns:xlink="http://www.w3.org/1999/xlink" x="0px" y="0px"
	 width="512px" height="512px" viewBox="0 0 512 512" enable-background="new 0 0 512 512" xml:space="preserve">
<path fill="#929292" d="M440.698,471.936L313.486,285.05c-3.336-4.914-10.234-6.433-15.325-3.379l-16.069,9.668
	c-5.087,3.05-6.992,9.845-4.229,15.111l105.28,200.063c2.764,5.252,9.178,7.057,14.271,3.99l40.101-24.093
	C442.608,483.356,444.033,476.851,440.698,471.936z M296.322,266.061c48.104-30.646,50.188-110.532,4.746-181.875
	C262.43,23.533,203.68-8.564,157.381,1.985c-10.647,2.086-24.247,7.761-37.93,16.475c-13.683,8.721-24.604,18.643-30.979,27.432
	C59.346,83.396,63.617,150.194,102.25,210.83c45.45,71.346,118.727,103.23,166.844,72.58l27.221-17.346L296.322,266.061z
	 M278.977,238.831c-31.746,20.215-87.728-8.487-122.252-62.704c-34.536-54.196-36.891-117.063-5.14-137.293
	c31.722-20.217,87.719,8.5,122.243,62.708C308.357,155.731,310.704,218.608,278.977,238.831z"/>
</svg>
