<?xml version="1.0" encoding="utf-8"?>
<!-- Generator: Adobe Illustrator 16.0.0, SVG Export Plug-In . SVG Version: 6.00 Build 0)  -->
<!DOCTYPE svg PUBLIC "-//W3C//DTD SVG 1.1//EN" "http://www.w3.org/Graphics/SVG/1.1/DTD/svg11.dtd">
<svg version="1.1" id="Layer_1" xmlns="http://www.w3.org/2000/svg" xmlns:xlink="http://www.w3.org/1999/xlink" x="0px" y="0px"
	 width="512px" height="512px" viewBox="0 0 512 512" enable-background="new 0 0 512 512" xml:space="preserve">
<path fill="#929292" d="M128,32l32-32h192l32,32l-32,32H160L128,32z M384,240l-32-32V80l32-32l32,32v128L384,240z M384,464l-32-32
	V304l32-32l32,32v128L384,464z M128,256l32-32h192l32,32l-32,32H160L128,256z M128,480l32-32h192l32,32l-32,32H160L128,480z"/>
</svg>
