<?xml version="1.0" encoding="utf-8"?>
<!-- Generator: Adobe Illustrator 16.0.0, SVG Export Plug-In . SVG Version: 6.00 Build 0)  -->
<!DOCTYPE svg PUBLIC "-//W3C//DTD SVG 1.1//EN" "http://www.w3.org/Graphics/SVG/1.1/DTD/svg11.dtd">
<svg version="1.1" id="Layer_1" xmlns="http://www.w3.org/2000/svg" xmlns:xlink="http://www.w3.org/1999/xlink" x="0px" y="0px"
	 width="512px" height="512px" viewBox="0 0 512 512" enable-background="new 0 0 512 512" xml:space="preserve">
<path fill="#929292" d="M401.006,116.918c61.533,44.385,67.586,183.594,79.691,225.961L366.14,388.273
	c-11.668-76.664-110.396-134.165-114.432-218.899C247.674,84.638,339.471,72.533,401.006,116.918z M470.609,506.298
	c-91.45,33.253-96.842-89.779-96.842-89.779L492.801,368.1C492.802,368.1,548.283,478.053,470.609,506.298z M1.074,95.524
	C13.2,20.628,86.67-35.723,143.735,27.047c57.061,62.77,27.905,173.24,73.867,235.695l-113.099,48.91
	C83.1,273.135-11.054,170.42,1.074,95.524z M227.187,420.078c-74.894,34.951-113.415-82.033-113.415-82.033l118.411-49.934
	C232.183,288.111,315.365,378.924,227.187,420.078z"/>
</svg>
