<?xml version="1.0" encoding="utf-8"?>
<!-- Generator: Adobe Illustrator 16.0.0, SVG Export Plug-In . SVG Version: 6.00 Build 0)  -->
<!DOCTYPE svg PUBLIC "-//W3C//DTD SVG 1.1//EN" "http://www.w3.org/Graphics/SVG/1.1/DTD/svg11.dtd">
<svg version="1.1" id="Layer_1" xmlns="http://www.w3.org/2000/svg" xmlns:xlink="http://www.w3.org/1999/xlink" x="0px" y="0px"
	 width="512px" height="512px" viewBox="0 0 512 512" enable-background="new 0 0 512 512" xml:space="preserve">
<path fill="#929292" d="M152.983,292c-0.493,2.762-1.188,5.575-2.164,8h49.679c-0.688-2.631-1.245-5.307-1.662-8H152.983z
	 M9.399,388c-1.724,2.639-3.245,5.307-4.529,8h194.986c5.639-2.82,11.325-5.508,16.946-8H9.399z M41.145,356
	c-3.452,2.6-6.777,5.27-9.945,8h202.902c-1.456-2.549-2.89-5.219-4.28-8H41.145z M138.285,308c-6.406,1.609-14.68,4.332-24.004,8
	h92.448c-1.359-2.521-2.583-5.191-3.661-8H138.285z M65.208,340c-4.316,2.559-8.585,5.229-12.75,8h173.643
	c-1.117-2.591-2.186-5.255-3.182-8H65.208z M1.796,404c-0.776,2.649-1.306,5.317-1.575,8h170.856
	c0.318-0.198,0.628-0.396,0.949-0.595c4.079-2.512,8.32-4.987,12.661-7.405H1.796z M15.32,380h221.067
	c2.17-0.809,4.317-1.587,6.409-2.307c-1.259-1.793-2.542-3.699-3.829-5.693H22.579C19.977,374.621,17.554,377.292,15.32,380z
	 M124.279,76h135.454c-2.176-2.818-4.63-5.498-7.395-8H131.669C128.905,70.502,126.454,73.183,124.279,76z M108.402,124h154.566
	c3.915-1.792,8-3.374,12.259-4.734c-0.104-1.083-0.226-2.172-0.361-3.266H109.134C108.798,118.704,108.56,121.377,108.402,124z
	 M79.513,332H219.26c-2.667-2.341-5.145-5.021-7.404-8H95.662C90.377,326.455,84.958,329.127,79.513,332z M133.849,252h70.037
	c0.404-0.855,0.826-1.697,1.269-2.525c-0.159-1.705-0.313-3.543-0.453-5.475h-75.065C130.987,246.799,132.404,249.47,133.849,252z
	 M112.354,212c2.376,2.069,5.055,3.283,7.928,3.283c0.263,1.593,0.581,3.161,0.921,4.717h83.138c0.127-2.611,0.314-5.279,0.581-8
	H112.354z M108.801,148c0.248,3.018,0.528,5.713,0.775,8h114.753c1.916-2.729,4.008-5.4,6.284-8H108.801z M108.141,132
	c-0.014,2.779,0.048,5.453,0.156,8h130.18c3.217-2.898,6.626-5.564,10.224-8H108.141z M112.378,100c-0.776,2.656-1.424,5.33-1.958,8
	h163.155c-0.534-2.67-1.183-5.344-1.958-8H112.378z M119.006,84c-1.456,2.603-2.729,5.278-3.839,8h153.67
	c-1.108-2.722-2.381-5.397-3.836-8H119.006z M198.009,276h-46.956c1.94,2.176,3.142,3.359,3.142,3.359s-0.018,1.877-0.225,4.641
	h44.044C197.873,281.314,197.868,278.641,198.009,276z M163.364,52c-7.931,1.915-14.756,4.643-20.622,8h98.528
	c-5.857-3.354-12.666-6.085-20.583-8H163.364z M138.783,260c1.968,2.971,3.896,5.648,5.69,8h54.435c0.471-2.743,1.096-5.417,1.889-8
	H138.783z M204.128,228h-80.822c0.846,2.745,1.796,5.413,2.82,8h78.136C204.169,233.445,204.117,230.776,204.128,228z M103.475,196
	c0.755,2.85,1.761,5.56,2.979,8h99.473c0.403-2.643,0.885-5.312,1.459-8H103.475z M108.591,164c-2.11,2.245-3.676,4.977-4.76,8
	h111.377c1.226-2.693,2.57-5.365,4.062-8H108.591z M102.089,180c-0.256,2.622-0.25,5.319-0.014,8h107.282
	c0.754-2.668,1.621-5.338,2.585-8H102.089z M367.497,402.688c-9.476-1.494-9.692-27.328-9.692-27.328s27.845-27.327,33.912-64.075
	c16.326,0,26.407-39.069,10.082-52.813C402.48,244,422.783,144.882,320,144.882c-102.782,0-82.479,99.118-81.799,113.589
	c-16.327,13.744-6.244,52.813,10.081,52.813c6.067,36.748,33.913,64.075,33.913,64.075s-0.217,25.834-9.692,27.328
	C241.979,407.503,128,457.345,128,512h192h192C512,457.345,398.021,407.503,367.497,402.688z"/>
</svg>
